<svg xmlns="http://www.w3.org/2000/svg" viewBox="0 0 64 64" fill="none">
  <!-- Level 5: Padi dan Kapas - Sila Keadilan Sosial Bagi Seluruh Rakyat Indonesia -->
  <defs>
    <linearGradient id="riceGradient" x1="0%" y1="0%" x2="0%" y2="100%">
      <stop offset="0%" style="stop-color:#FFD700;stop-opacity:1" />
      <stop offset="100%" style="stop-color:#DAA520;stop-opacity:1" />
    </linearGradient>
    <linearGradient id="cottonGradient" x1="0%" y1="0%" x2="0%" y2="100%">
      <stop offset="0%" style="stop-color:#FFFFFF;stop-opacity:1" />
      <stop offset="100%" style="stop-color:#F0F0F0;stop-opacity:1" />
    </linearGradient>
  </defs>

  <!-- Background circle -->
  <circle cx="32" cy="32" r="28" fill="#FFFACD" opacity="0.3"/>

  <!-- Left side: Rice (Padi) - 17 grains -->
  <g id="rice-left">
    <!-- Rice stem -->
    <path d="M 18 48 Q 16 38 15 28 Q 14 18 16 12" stroke="#8B4513" stroke-width="2" fill="none"/>

    <!-- Rice grains (bulir padi) -->
    <ellipse cx="12" cy="14" rx="2.5" ry="4" fill="url(#riceGradient)" stroke="#DAA520" stroke-width="0.5"/>
    <ellipse cx="14" cy="16" rx="2.5" ry="4" fill="url(#riceGradient)" stroke="#DAA520" stroke-width="0.5"/>
    <ellipse cx="16" cy="18" rx="2.5" ry="4" fill="url(#riceGradient)" stroke="#DAA520" stroke-width="0.5"/>
    <ellipse cx="14" cy="20" rx="2.5" ry="4" fill="url(#riceGradient)" stroke="#DAA520" stroke-width="0.5"/>
    <ellipse cx="12" cy="22" rx="2.5" ry="4" fill="url(#riceGradient)" stroke="#DAA520" stroke-width="0.5"/>
    <ellipse cx="14" cy="24" rx="2.5" ry="4" fill="url(#riceGradient)" stroke="#DAA520" stroke-width="0.5"/>
    <ellipse cx="16" cy="26" rx="2.5" ry="4" fill="url(#riceGradient)" stroke="#DAA520" stroke-width="0.5"/>
    <ellipse cx="14" cy="28" rx="2.5" ry="4" fill="url(#riceGradient)" stroke="#DAA520" stroke-width="0.5"/>
    <ellipse cx="12" cy="30" rx="2.5" ry="4" fill="url(#riceGradient)" stroke="#DAA520" stroke-width="0.5"/>

    <ellipse cx="18" cy="17" rx="2.5" ry="4" fill="url(#riceGradient)" stroke="#DAA520" stroke-width="0.5"/>
    <ellipse cx="20" cy="20" rx="2.5" ry="4" fill="url(#riceGradient)" stroke="#DAA520" stroke-width="0.5"/>
    <ellipse cx="18" cy="23" rx="2.5" ry="4" fill="url(#riceGradient)" stroke="#DAA520" stroke-width="0.5"/>
    <ellipse cx="20" cy="26" rx="2.5" ry="4" fill="url(#riceGradient)" stroke="#DAA520" stroke-width="0.5"/>
    <ellipse cx="18" cy="29" rx="2.5" ry="4" fill="url(#riceGradient)" stroke="#DAA520" stroke-width="0.5"/>
    <ellipse cx="20" cy="32" rx="2.5" ry="4" fill="url(#riceGradient)" stroke="#DAA520" stroke-width="0.5"/>
    <ellipse cx="18" cy="35" rx="2.5" ry="4" fill="url(#riceGradient)" stroke="#DAA520" stroke-width="0.5"/>
    <ellipse cx="16" cy="38" rx="2.5" ry="4" fill="url(#riceGradient)" stroke="#DAA520" stroke-width="0.5"/>
  </g>

  <!-- Right side: Cotton (Kapas) - 8 buds -->
  <g id="cotton-right">
    <!-- Cotton stem -->
    <path d="M 46 48 Q 48 38 49 28 Q 50 18 48 12" stroke="#228B22" stroke-width="2" fill="none"/>

    <!-- Cotton buds (kuntum kapas) -->
    <g transform="translate(46, 14)">
      <circle cx="0" cy="0" r="3" fill="url(#cottonGradient)" stroke="#E0E0E0" stroke-width="0.5"/>
      <circle cx="-1.5" cy="-1" r="1.5" fill="#FFF" opacity="0.8"/>
    </g>
    <g transform="translate(50, 18)">
      <circle cx="0" cy="0" r="3" fill="url(#cottonGradient)" stroke="#E0E0E0" stroke-width="0.5"/>
      <circle cx="1" cy="-1" r="1.5" fill="#FFF" opacity="0.8"/>
    </g>
    <g transform="translate(48, 22)">
      <circle cx="0" cy="0" r="3" fill="url(#cottonGradient)" stroke="#E0E0E0" stroke-width="0.5"/>
      <circle cx="-1" cy="1" r="1.5" fill="#FFF" opacity="0.8"/>
    </g>
    <g transform="translate(52, 26)">
      <circle cx="0" cy="0" r="3" fill="url(#cottonGradient)" stroke="#E0E0E0" stroke-width="0.5"/>
      <circle cx="1" cy="1" r="1.5" fill="#FFF" opacity="0.8"/>
    </g>
    <g transform="translate(50, 30)">
      <circle cx="0" cy="0" r="3" fill="url(#cottonGradient)" stroke="#E0E0E0" stroke-width="0.5"/>
      <circle cx="-1.5" cy="0" r="1.5" fill="#FFF" opacity="0.8"/>
    </g>
    <g transform="translate(48, 34)">
      <circle cx="0" cy="0" r="3" fill="url(#cottonGradient)" stroke="#E0E0E0" stroke-width="0.5"/>
      <circle cx="1" cy="-1" r="1.5" fill="#FFF" opacity="0.8"/>
    </g>
    <g transform="translate(50, 38)">
      <circle cx="0" cy="0" r="3" fill="url(#cottonGradient)" stroke="#E0E0E0" stroke-width="0.5"/>
      <circle cx="0" cy="1" r="1.5" fill="#FFF" opacity="0.8"/>
    </g>
    <g transform="translate(46, 42)">
      <circle cx="0" cy="0" r="3" fill="url(#cottonGradient)" stroke="#E0E0E0" stroke-width="0.5"/>
      <circle cx="-1" cy="-1" r="1.5" fill="#FFF" opacity="0.8"/>
    </g>
  </g>

  <!-- Center divider (subtle) -->
  <line x1="32" y1="8" x2="32" y2="52" stroke="#D4AF37" stroke-width="1" opacity="0.3" stroke-dasharray="2,2"/>
</svg>
